HIERARCHY
ROOT pelvis
{
	OFFSET 0.169014 94.548622 1.830722
	CHANNELS 6 Xposition Yposition Zposition Xrotation Yrotation Zrotation
	JOINT spine01
	{
		OFFSET 0.698717 10.103035 1.059581
		CHANNELS 6 Xposition Yposition Zposition Xrotation Yrotation Zrotation
		JOINT spine02
		{
			OFFSET 0.259143 10.096214 0.823282
			CHANNELS 6 Xposition Yposition Zposition Xrotation Yrotation Zrotation
			JOINT spine03
			{
				OFFSET -0.024364 9.007729 1.885798
				CHANNELS 6 Xposition Yposition Zposition Xrotation Yrotation Zrotation
				JOINT neck
				{
					OFFSET -0.336366 15.635925 6.299266
					CHANNELS 6 Xposition Yposition Zposition Xrotation Yrotation Zrotation
					JOINT head
					{
						OFFSET 0.078330 8.201874 5.297731
						CHANNELS 6 Xposition Yposition Zposition Xrotation Yrotation Zrotation
						End Site
						{
							OFFSET 0.000000 1.975693 0.000000
						}
					}
				}
				JOINT clavicle_L
				{
					OFFSET 4.141592 11.102188 2.682955
					CHANNELS 6 Xposition Yposition Zposition Xrotation Yrotation Zrotation
					JOINT upperarm_L
					{
						OFFSET 9.966952 -0.040100 -4.256137
						CHANNELS 6 Xposition Yposition Zposition Xrotation Yrotation Zrotation
						JOINT lowerarm_L
						{
							OFFSET 3.613857 -14.098366 -23.734447
							CHANNELS 6 Xposition Yposition Zposition Xrotation Yrotation Zrotation
							JOINT hand_L
							{
								OFFSET 2.960070 -19.700546 20.140608
								CHANNELS 6 Xposition Yposition Zposition Xrotation Yrotation Zrotation
								JOINT thumb01_L
								{
									OFFSET -2.477608 0.636780 3.035378
									CHANNELS 6 Xposition Yposition Zposition Xrotation Yrotation Zrotation
									JOINT thumb02_L
									{
										OFFSET -2.807817 0.071220 3.081704
										CHANNELS 6 Xposition Yposition Zposition Xrotation Yrotation Zrotation
										JOINT thumb03_L
										{
											OFFSET -2.029701 -0.787231 2.643455
											CHANNELS 6 Xposition Yposition Zposition Xrotation Yrotation Zrotation
											End Site
											{
												OFFSET 0.000000 1.975693 0.000000
											}
										}
									}
								}
								JOINT index00_L
								{
									OFFSET -1.262730 -2.096352 9.075534
									CHANNELS 6 Xposition Yposition Zposition Xrotation Yrotation Zrotation
									JOINT index01_L
									{
										OFFSET -3.420704 -1.319885 0.269393
										CHANNELS 6 Xposition Yposition Zposition Xrotation Yrotation Zrotation
										JOINT index02_L
										{
											OFFSET -0.789450 0.971245 -2.597244
											CHANNELS 6 Xposition Yposition Zposition Xrotation Yrotation Zrotation
											JOINT index03_L
											{
												OFFSET -0.655169 0.806038 -2.155467
												CHANNELS 6 Xposition Yposition Zposition Xrotation Yrotation Zrotation
												End Site
												{
													OFFSET 0.000000 1.975693 0.000000
												}
											}
										}
									}
								}
								JOINT middle00_L
								{
									OFFSET 0.109446 -3.968735 8.667327
									CHANNELS 6 Xposition Yposition Zposition Xrotation Yrotation Zrotation
									JOINT middle01_L
									{
										OFFSET -3.475592 -1.262253 0.060498
										CHANNELS 6 Xposition Yposition Zposition Xrotation Yrotation Zrotation
										JOINT middle02_L
										{
											OFFSET -0.957893 0.999863 -2.605855
											CHANNELS 6 Xposition Yposition Zposition Xrotation Yrotation Zrotation
											JOINT middle03_L
											{
												OFFSET -0.919914 0.960220 -2.502536
												CHANNELS 6 Xposition Yposition Zposition Xrotation Yrotation Zrotation
												End Site
												{
													OFFSET 0.000000 1.975693 0.000000
												}
											}
										}
									}
								}
								JOINT ring00_L
								{
									OFFSET 0.800495 -5.360634 7.549499
									CHANNELS 6 Xposition Yposition Zposition Xrotation Yrotation Zrotation
									JOINT ring01_L
									{
										OFFSET -2.953804 -1.087936 -0.197893
										CHANNELS 6 Xposition Yposition Zposition Xrotation Yrotation Zrotation
										JOINT ring02_L
										{
											OFFSET -0.733482 1.353210 -2.502174
											CHANNELS 6 Xposition Yposition Zposition Xrotation Yrotation Zrotation
											JOINT ring03_L
											{
												OFFSET -0.661024 1.219536 -2.254997
												CHANNELS 6 Xposition Yposition Zposition Xrotation Yrotation Zrotation
												End Site
												{
													OFFSET 0.000000 1.975693 0.000000
												}
											}
										}
									}
								}
								JOINT pinky00_L
								{
									OFFSET 1.146339 -6.712601 5.796784
									CHANNELS 6 Xposition Yposition Zposition Xrotation Yrotation Zrotation
									JOINT pinky01_L
									{
										OFFSET -3.388973 -1.086281 -0.542989
										CHANNELS 6 Xposition Yposition Zposition Xrotation Yrotation Zrotation
										JOINT pinky02_L
										{
											OFFSET -0.059944 1.284332 -1.678310
											CHANNELS 6 Xposition Yposition Zposition Xrotation Yrotation Zrotation
											JOINT pinky03_L
											{
												OFFSET -0.056017 1.200195 -1.568365
												CHANNELS 6 Xposition Yposition Zposition Xrotation Yrotation Zrotation
												End Site
												{
													OFFSET 0.000000 1.975693 0.000000
												}
											}
										}
									}
								}
							}
						}
					}
				}
				JOINT clavicle_R
				{
					OFFSET -4.887079 10.407104 3.926708
					CHANNELS 6 Xposition Yposition Zposition Xrotation Yrotation Zrotation
					JOINT upperarm_R
					{
						OFFSET -10.596522 -2.167160 -0.694348
						CHANNELS 6 Xposition Yposition Zposition Xrotation Yrotation Zrotation
						JOINT lowerarm_R
						{
							OFFSET -12.596228 -20.191971 -14.448739
							CHANNELS 6 Xposition Yposition Zposition Xrotation Yrotation Zrotation
							JOINT hand_R
							{
								OFFSET 4.546652 -18.436302 21.022581
								CHANNELS 6 Xposition Yposition Zposition Xrotation Yrotation Zrotation
								JOINT pinky00_R
								{
									OFFSET 0.916258 -7.805786 4.264650
									CHANNELS 6 Xposition Yposition Zposition Xrotation Yrotation Zrotation
									JOINT pinky01_R
									{
										OFFSET 3.177591 -0.090401 -1.689606
										CHANNELS 6 Xposition Yposition Zposition Xrotation Yrotation Zrotation
										JOINT pinky02_R
										{
											OFFSET -0.882711 1.569122 -1.108377
											CHANNELS 6 Xposition Yposition Zposition Xrotation Yrotation Zrotation
											JOINT pinky03_R
											{
												OFFSET -0.824884 1.466331 -1.035769
												CHANNELS 6 Xposition Yposition Zposition Xrotation Yrotation Zrotation
												End Site
												{
													OFFSET 0.000000 1.975693 0.000000
												}
											}
										}
									}
								}
								JOINT ring00_R
								{
									OFFSET 1.498703 -6.783997 6.171471
									CHANNELS 6 Xposition Yposition Zposition Xrotation Yrotation Zrotation
									JOINT ring01_R
									{
										OFFSET 2.934719 -0.568413 -1.006014
										CHANNELS 6 Xposition Yposition Zposition Xrotation Yrotation Zrotation
										JOINT ring02_R
										{
											OFFSET -0.280916 1.975632 -2.155922
											CHANNELS 6 Xposition Yposition Zposition Xrotation Yrotation Zrotation
											JOINT ring03_R
											{
												OFFSET -0.253166 1.780472 -1.942949
												CHANNELS 6 Xposition Yposition Zposition Xrotation Yrotation Zrotation
												End Site
												{
													OFFSET 0.000000 1.975693 0.000000
												}
											}
										}
									}
								}
								JOINT middle00_R
								{
									OFFSET 2.268444 -5.546928 7.413095
									CHANNELS 6 Xposition Yposition Zposition Xrotation Yrotation Zrotation
									JOINT middle01_R
									{
										OFFSET 3.477184 -0.965752 -0.808220
										CHANNELS 6 Xposition Yposition Zposition Xrotation Yrotation Zrotation
										JOINT middle02_R
										{
											OFFSET 0.113609 1.653267 -2.441631
											CHANNELS 6 Xposition Yposition Zposition Xrotation Yrotation Zrotation
											JOINT middle03_R
											{
												OFFSET 0.109104 1.587715 -2.344824
												CHANNELS 6 Xposition Yposition Zposition Xrotation Yrotation Zrotation
												End Site
												{
													OFFSET 0.000000 1.975693 0.000000
												}
											}
										}
									}
								}
								JOINT index00_R
								{
									OFFSET 3.486303 -3.601868 7.950354
									CHANNELS 6 Xposition Yposition Zposition Xrotation Yrotation Zrotation
									JOINT index01_R
									{
										OFFSET 3.338889 -1.386688 -0.666956
										CHANNELS 6 Xposition Yposition Zposition Xrotation Yrotation Zrotation
										JOINT index02_R
										{
											OFFSET 0.041311 1.551674 -2.429575
											CHANNELS 6 Xposition Yposition Zposition Xrotation Yrotation Zrotation
											JOINT index03_R
											{
												OFFSET 0.034285 1.287743 -2.016315
												CHANNELS 6 Xposition Yposition Zposition Xrotation Yrotation Zrotation
												End Site
												{
													OFFSET 0.000000 1.975693 0.000000
												}
											}
										}
									}
								}
								JOINT thumb01_R
								{
									OFFSET 3.009747 0.407600 2.553469
									CHANNELS 6 Xposition Yposition Zposition Xrotation Yrotation Zrotation
									JOINT thumb02_R
									{
										OFFSET 3.476145 -0.561836 2.233055
										CHANNELS 6 Xposition Yposition Zposition Xrotation Yrotation Zrotation
										JOINT thumb03_R
										{
											OFFSET 2.668459 -1.166939 1.801170
											CHANNELS 6 Xposition Yposition Zposition Xrotation Yrotation Zrotation
											End Site
											{
												OFFSET 0.000000 1.975693 0.000000
											}
										}
									}
								}
							}
						}
					}
				}
			}
		}
	}
	JOINT thigh_L
	{
		OFFSET 7.631982 -7.069824 -2.698647
		CHANNELS 6 Xposition Yposition Zposition Xrotation Yrotation Zrotation
		JOINT calf_L
		{
			OFFSET -1.063418 -36.521793 25.176329
			CHANNELS 6 Xposition Yposition Zposition Xrotation Yrotation Zrotation
			JOINT foot_L
			{
				OFFSET -4.580702 -14.933758 -41.698097
				CHANNELS 6 Xposition Yposition Zposition Xrotation Yrotation Zrotation
				JOINT toes_L
				{
					OFFSET 2.223491 -13.624777 -0.573416
					CHANNELS 6 Xposition Yposition Zposition Xrotation Yrotation Zrotation
					End Site
					{
						OFFSET 0.000000 1.975697 0.000000
					}
				}
			}
		}
	}
	JOINT thigh_R
	{
		OFFSET -8.721762 -6.042137 -1.713333
		CHANNELS 6 Xposition Yposition Zposition Xrotation Yrotation Zrotation
		JOINT calf_R
		{
			OFFSET 1.701340 -42.605320 12.276593
			CHANNELS 6 Xposition Yposition Zposition Xrotation Yrotation Zrotation
			JOINT foot_R
			{
				OFFSET 0.852734 -35.078148 -27.413845
				CHANNELS 6 Xposition Yposition Zposition Xrotation Yrotation Zrotation
				JOINT toes_R
				{
					OFFSET 0.295880 -10.569359 8.894255
					CHANNELS 6 Xposition Yposition Zposition Xrotation Yrotation Zrotation
					End Site
					{
						OFFSET 0.000000 1.975696 0.000000
					}
				}
			}
		}
	}
}
MOTION
Frames: 4
Frame Time: 0.033333
0.459551 95.439171 2.663798 -1.179825 1.994850 2.978310 0.698718 10.103034 1.059580 0.111281 -2.294980 -3.658886 0.259142 10.096196 0.823280 0.553318 -5.289805 -3.656300 -0.024364 9.007748 1.885804 0.535659 -4.544844 -4.550733 -0.336368 15.635956 6.299268 -0.492703 0.769478 3.185295 0.078333 8.201852 5.297729 -0.993260 2.217472 8.894743 4.141593 11.102210 2.682958 -0.484269 -3.609073 -3.731761 9.966954 -0.040067 -4.256157 -28.121653 -17.725377 0.756346 3.613861 -14.098335 -23.734434 11.330030 5.817723 -1.041735 2.960066 -19.700541 20.140604 -6.236202 7.336363 -4.910143 -2.477613 0.636806 3.035379 0.000006 -0.000023 -0.000011 -2.807817 0.071229 3.081702 -0.000000 0.000031 -0.000024 -2.029697 -0.787201 2.643457 -0.000001 -0.000002 -0.000000 -1.262738 -2.096368 9.075532 -1.601351 4.328228 2.083511 -3.420704 -1.319896 0.269379 -1.810410 4.201890 2.177490 -0.789441 0.971222 -2.597262 -0.000003 0.000003 -0.000000 -0.655167 0.806045 -2.155465 -0.000001 -0.000002 -0.000000 0.109441 -3.968719 8.667326 -1.606294 4.259962 2.219151 -3.475589 -1.262277 0.060499 -1.660532 4.212974 2.270777 -0.957899 0.999840 -2.605864 0.000001 0.000000 0.000001 -0.919914 0.960213 -2.502537 0.000001 0.000002 0.000001 0.800498 -5.360641 7.549506 -1.727017 3.916651 2.717797 -2.953804 -1.087903 -0.197902 -1.664442 3.964657 2.684356 -0.733474 1.353203 -2.502168 -0.000002 0.000003 -0.000000 -0.661022 1.219528 -2.254992 0.000000 -0.000002 -0.000000 1.146339 -6.712585 5.796784 -1.758646 3.613984 3.094797 -3.388972 -1.086316 -0.542990 -1.351702 3.819170 3.040676 -0.059946 1.284294 -1.678310 0.000002 0.000000 0.000001 -0.056015 1.200195 -1.568363 -0.000001 0.000000 -0.000001 -4.887086 10.407110 3.926712 -0.222874 -2.366684 -2.089204 -10.596518 -2.167188 -0.694339 13.257569 -3.914019 -3.948658 -12.596224 -20.191935 -14.448735 17.146526 1.976836 -2.297402 4.546652 -18.436335 21.022581 -15.946782 0.795212 10.085485 0.916248 -7.805777 4.264649 -0.249960 -0.419092 -0.444667 3.177593 -0.090416 -1.689606 -0.193795 -0.431874 -0.460534 -0.882709 1.569122 -1.108375 0.000001 -0.000002 -0.000001 -0.824881 1.466316 -1.035769 -0.000001 -0.000001 -0.000001 1.498696 -6.783996 6.171475 -0.234483 -0.466390 -0.404198 2.934727 -0.568424 -1.006009 -0.221222 -0.474618 -0.402688 -0.280922 1.975631 -2.155928 0.000003 0.000005 -0.000000 -0.253170 1.780464 -1.942948 0.000002 0.000005 -0.000000 2.268440 -5.546937 7.413092 -0.195978 -0.520588 -0.355269 3.477194 -0.965760 -0.808225 -0.234776 -0.504544 -0.355969 0.113611 1.653252 -2.441632 -0.000002 0.000002 0.000001 0.109106 1.587715 -2.344829 -0.000001 0.000002 0.000001 3.486297 -3.601886 7.950354 -0.192168 -0.530986 -0.341686 3.338885 -1.386685 -0.666959 -0.304918 -0.490716 -0.320452 0.041304 1.551643 -2.429582 -0.000000 -0.000005 -0.000001 0.034286 1.287727 -2.016315 0.000000 0.000000 -0.000001 3.009742 0.407582 2.553468 1.146467 -0.126864 -1.108597 3.476146 -0.561835 2.233057 4.239538 -0.143117 -6.210959 2.668454 -1.166967 1.801165 -0.000004 0.000003 -0.000000 7.631982 -7.069836 -2.698649 36.246390 -6.369932 -1.936984 -1.063418 -36.521805 25.176313 -69.671051 -3.608753 -6.516722 -4.580701 -14.933751 -41.698101 -16.603316 -2.665569 2.100373 2.223492 -13.624784 -0.573408 -3.315645 -6.688209 3.514942 -8.721757 -6.042135 -1.713337 -25.179122 2.606607 -10.348064 1.701344 -42.605335 12.276582 49.203289 -0.836548 3.666927 0.852736 -35.078152 -27.413847 27.418632 0.891561 -0.107623 0.295880 -10.569357 8.894258 -4.525699 -3.949280 -3.442812 
0.459026 98.268158 3.656763 -0.228796 0.237071 0.874632 0.698717 10.103045 1.059582 -0.358187 -3.703292 -2.585647 0.259143 10.096206 0.823278 -0.269015 -8.009045 -2.458879 -0.024368 9.007752 1.885802 -0.233037 -7.459078 -3.821748 -0.336371 15.635956 6.299262 -0.178051 4.844966 1.217210 0.078332 8.201854 5.297732 -0.788973 6.268326 9.478873 4.141592 11.102189 2.682959 -0.441778 -3.861497 -3.652893 9.966951 -0.040098 -4.256158 -29.359274 -17.175289 2.372284 3.613847 -14.098341 -23.734457 4.041275 6.972576 1.448608 2.960071 -19.700537 20.140610 -6.741272 7.396341 -4.752778 -2.477608 0.636800 3.035394 0.000007 -0.000023 -0.000010 -2.807818 0.071191 3.081704 0.000003 0.000027 -0.000024 -2.029700 -0.787208 2.643442 -0.000001 0.000002 0.000003 -1.262731 -2.096354 9.075549 -0.891810 2.471463 1.170641 -3.420697 -1.319899 0.269403 -1.010456 2.400706 1.222834 -0.789441 0.971231 -2.597245 -0.000005 0.000003 -0.000003 -0.655172 0.806039 -2.155455 -0.000004 -0.000002 -0.000002 0.109445 -3.968717 8.667337 -0.894628 2.432925 1.247717 -3.475590 -1.262251 0.060486 -0.924275 2.406611 1.277210 -0.957895 0.999855 -2.605856 -0.000003 -0.000001 0.000001 -0.919912 0.960213 -2.502534 0.000002 -0.000001 -0.000003 0.800496 -5.360627 7.549521 -0.959071 2.240213 1.532391 -2.953805 -1.087925 -0.197907 -0.924267 2.266688 1.513477 -0.733483 1.353196 -2.502156 -0.000003 0.000003 0.000001 -0.661024 1.219537 -2.254988 -0.000003 0.000002 -0.000001 1.146343 -6.712578 5.796806 -0.976899 2.069343 1.747605 -3.388969 -1.086313 -0.542980 -0.744243 2.183032 1.719348 -0.059939 1.284301 -1.678303 0.000002 0.000000 -0.000002 -0.056014 1.200180 -1.568366 -0.000004 0.000002 0.000002 -4.887080 10.407077 3.926711 -0.653984 -2.867884 -4.785778 -10.596514 -2.167147 -0.694345 18.773383 -6.031849 -10.915175 -12.596243 -20.191946 -14.448743 15.885883 4.391684 -1.632278 4.546661 -18.436300 21.022573 -13.163280 2.542133 9.843158 0.916251 -7.805772 4.264647 -1.244079 -2.018825 -2.179155 3.177590 -0.090403 -1.689606 -0.973362 -2.083286 -2.251829 -0.882712 1.569106 -1.108371 0.000001 0.000003 0.000001 -0.824888 1.466324 -1.035767 -0.000002 -0.000001 0.000001 1.498698 -6.783998 6.171468 -1.157773 -2.249832 -1.991326 2.934715 -0.568411 -1.006010 -1.110799 -2.279663 -1.984019 -0.280919 1.975624 -2.155919 0.000003 0.000010 -0.000003 -0.253169 1.780480 -1.942952 -0.000001 0.000002 -0.000002 2.268439 -5.546943 7.413091 -0.987719 -2.512734 -1.750052 3.477188 -0.965778 -0.808220 -1.167562 -2.441182 -1.744624 0.113614 1.653259 -2.441635 0.000000 0.000007 -0.000002 0.109106 1.587708 -2.344829 -0.000001 -0.000003 -0.000001 3.486303 -3.601861 7.950350 -0.964556 -2.569822 -1.677680 3.338886 -1.386681 -0.666960 -1.506124 -2.367889 -1.581963 0.041314 1.551643 -2.429572 0.000000 -0.000002 -0.000001 0.034278 1.287743 -2.016317 -0.000001 0.000000 0.000003 3.009753 0.407585 2.553460 1.144792 -0.126563 -1.110758 3.476146 -0.561826 2.233060 4.268230 -0.145808 -6.252706 2.668450 -1.166958 1.801172 -0.000030 -0.000038 -0.000032 7.631983 -7.069828 -2.698639 52.820223 -3.448712 -1.791757 -1.063417 -36.521793 25.176348 -88.868390 -6.480147 -6.535590 -4.580702 -14.933753 -41.698090 9.122270 3.833788 -2.399744 2.223493 -13.624778 -0.573414 -25.341025 -12.632709 4.840923 -8.721761 -6.042124 -1.713339 -31.025827 2.873415 -6.849292 1.701340 -42.605316 12.276593 31.378108 -3.522938 2.600440 0.852736 -35.078148 -27.413845 25.001542 0.962016 -0.446614 0.295881 -10.569358 8.894254 -1.561462 -3.017998 -3.005745 
0.339928 100.856178 4.452966 1.638911 -3.042374 -0.833894 0.698717 10.103035 1.059581 -0.923765 -4.749900 -1.694831 0.259143 10.096205 0.823281 -1.383132 -10.287271 -1.758362 -0.024364 9.007722 1.885804 -1.322276 -9.861313 -3.495676 -0.336369 15.635954 6.299262 -1.654601 6.116736 3.042028 0.078330 8.201848 5.297729 3.115721 13.403629 8.782179 4.141592 11.102189 2.682953 -0.432613 -3.581113 -3.548549 9.966952 -0.040083 -4.256157 -29.013120 -17.189476 5.340266 3.613850 -14.098339 -23.734459 -3.922289 7.179109 3.997692 2.960068 -19.700544 20.140600 -6.766667 6.860437 -5.092916 -2.477621 0.636803 3.035372 -0.000003 -0.000000 -0.000000 -2.807823 0.071199 3.081695 0.000005 0.000031 -0.000050 -2.029699 -0.787232 2.643437 0.000004 0.000002 -0.000000 -1.262738 -2.096357 9.075525 -0.281031 0.796390 0.372032 -3.420711 -1.319902 0.269393 -0.319034 0.773785 0.388562 -0.789452 0.971261 -2.597239 -0.000007 0.000003 -0.000003 -0.655169 0.806038 -2.155458 0.000001 0.000003 0.000002 0.109437 -3.968720 8.667311 -0.283166 0.783838 0.396364 -3.475597 -1.262258 0.060510 -0.291066 0.775566 0.406404 -0.957899 0.999848 -2.605857 0.000001 -0.000002 -0.000001 -0.919916 0.960236 -2.502517 -0.000004 0.000000 0.000001 0.800487 -5.360645 7.549500 -0.300286 0.723102 0.488944 -2.953803 -1.087931 -0.197895 -0.290384 0.730911 0.482546 -0.733464 1.353204 -2.502169 -0.000001 0.000005 -0.000001 -0.661029 1.219537 -2.255003 -0.000001 -0.000002 0.000001 1.146335 -6.712577 5.796780 -0.307071 0.668397 0.557835 -3.388973 -1.086306 -0.542987 -0.231874 0.703700 0.549582 -0.059943 1.284308 -1.678308 0.000003 0.000005 0.000004 -0.056021 1.200187 -1.568367 -0.000001 0.000000 -0.000001 -4.887082 10.407083 3.926708 -0.772372 -2.191054 -5.465498 -10.596529 -2.167131 -0.694341 22.647773 -8.021377 -16.368220 -12.596232 -20.191946 -14.448738 13.994983 5.194120 0.407772 4.546649 -18.436312 21.022579 -9.783933 2.245177 10.450698 0.916248 -7.805793 4.264654 -2.188576 -3.443107 -3.778324 3.177590 -0.090392 -1.689608 -1.725894 -3.559458 -3.898215 -0.882715 1.569114 -1.108386 0.000002 -0.000002 0.000002 -0.824890 1.466339 -1.035771 0.000002 0.000001 -0.000000 1.498704 -6.784006 6.171481 -2.039099 -3.844717 -3.457968 2.934739 -0.568421 -1.005993 -1.961922 -3.895057 -3.444897 -0.280920 1.975639 -2.155926 0.000002 0.000003 0.000002 -0.253166 1.780472 -1.942951 0.000001 0.000000 -0.000000 2.268441 -5.546951 7.413105 -1.749133 -4.302491 -3.041469 3.477187 -0.965764 -0.808221 -2.055776 -4.177726 -3.033776 0.113617 1.653251 -2.441634 -0.000001 0.000003 0.000002 0.109102 1.587722 -2.344829 0.000000 0.000000 0.000001 3.486301 -3.601881 7.950362 -1.707660 -4.403040 -2.915765 3.338891 -1.386695 -0.666949 -2.633223 -4.047118 -2.762169 0.041299 1.551659 -2.429579 0.000003 -0.000005 0.000001 0.034284 1.287758 -2.016320 0.000001 -0.000002 0.000001 3.009746 0.407568 2.553468 1.143057 -0.126240 -1.112967 3.476135 -0.561854 2.233059 4.294293 -0.147875 -6.290569 2.668454 -1.166968 1.801163 -0.000002 0.000002 -0.000002 7.631982 -7.069819 -2.698644 54.714070 1.081749 -4.243776 -1.063416 -36.521786 25.176336 -83.036044 -7.083494 -5.589996 -4.580702 -14.933758 -41.698097 25.191765 7.862247 -7.526166 2.223492 -13.624782 -0.573414 -14.326785 -14.319802 7.691477 -8.721761 -6.042126 -1.713331 -32.334478 3.802940 -2.599882 1.701340 -42.605312 12.276596 6.683565 -5.884276 0.920264 0.852734 -35.078152 -27.413845 24.677219 0.889623 -0.181797 0.295883 -10.569359 8.894254 0.189576 -2.672251 -2.934118 
0.435222 101.972557 4.324451 3.239330 -3.781565 -0.736978 0.698717 10.103050 1.059584 -1.226078 -5.386194 -1.151858 0.259143 10.096204 0.823276 -1.987639 -11.857323 -1.330212 -0.024365 9.007747 1.885802 -1.920033 -11.502179 -3.331260 -0.336369 15.635940 6.299259 -2.761087 7.228253 3.640676 0.078331 8.201884 5.297729 3.383720 17.222308 8.183990 4.141592 11.102198 2.682947 -0.461366 -3.198532 -3.569003 9.966957 -0.040070 -4.256153 -28.090041 -17.224561 8.098514 3.613858 -14.098368 -23.734447 -11.036133 6.544300 5.932307 2.960057 -19.700537 20.140596 -6.420987 6.017504 -5.763670 -2.477607 0.636791 3.035378 0.000012 -0.000011 -0.000037 -2.807809 0.071205 3.081714 -0.000001 0.000002 0.000003 -2.029701 -0.787209 2.643444 -0.000000 -0.000002 0.000003 -1.262727 -2.096385 9.075538 0.195854 -0.564644 -0.260851 -3.420690 -1.319908 0.269399 0.222816 -0.549391 -0.271863 -0.789436 0.971237 -2.597238 -0.000001 0.000003 0.000001 -0.655162 0.806038 -2.155472 -0.000003 0.000001 0.000001 0.109453 -3.968733 8.667316 0.193393 -0.556517 -0.279346 -3.475585 -1.262277 0.060507 0.202927 -0.550668 -0.284745 -0.957900 0.999863 -2.605866 0.000001 -0.000001 0.000001 -0.919921 0.960222 -2.502548 -0.000001 -0.000004 -0.000004 0.800500 -5.360654 7.549493 0.212280 -0.512666 -0.342304 -2.953801 -1.087914 -0.197890 0.202119 -0.519518 -0.338856 -0.733466 1.353202 -2.502167 0.000002 0.000003 -0.000004 -0.661023 1.219543 -2.254998 -0.000004 -0.000002 -0.000001 1.146343 -6.712583 5.796786 0.213369 -0.474755 -0.392536 -3.388975 -1.086313 -0.542989 0.160395 -0.500345 -0.386896 -0.059942 1.284317 -1.678303 -0.000000 -0.000002 -0.000001 -0.056013 1.200196 -1.568350 -0.000000 -0.000002 0.000001 -4.887081 10.407094 3.926705 -1.152688 -3.054397 -7.698456 -10.596515 -2.167111 -0.694336 24.323907 -9.174094 -18.147758 -12.596240 -20.191956 -14.448743 12.575544 5.658369 0.307865 4.546669 -18.436335 21.022589 -8.575772 3.361391 9.867427 0.916255 -7.805802 4.264655 -2.989467 -4.584864 -5.102040 3.177588 -0.090412 -1.689609 -2.372086 -4.747046 -5.257766 -0.882694 1.569122 -1.108372 0.000002 -0.000002 -0.000000 -0.824876 1.466316 -1.035759 -0.000000 -0.000003 -0.000004 1.498695 -6.783994 6.171478 -2.789529 -5.128464 -4.674734 2.934717 -0.568407 -1.006011 -2.687999 -5.196149 -4.656624 -0.280931 1.975623 -2.155929 0.000002 0.000007 0.000005 -0.253151 1.780464 -1.942943 -0.000002 0.000000 -0.000000 2.268445 -5.546948 7.413097 -2.401720 -5.749312 -4.115095 3.477192 -0.965770 -0.808228 -2.810823 -5.578953 -4.107693 0.113609 1.653244 -2.441628 0.000001 0.000003 -0.000002 0.109104 1.587715 -2.344824 0.000002 0.000000 -0.000003 3.486305 -3.601891 7.950360 -2.344765 -5.886188 -3.945921 3.338878 -1.386702 -0.666956 -3.580151 -5.399183 -3.751373 0.041311 1.551651 -2.429581 -0.000000 -0.000005 0.000003 0.034286 1.287735 -2.016320 0.000001 0.000000 0.000002 3.009756 0.407563 2.553473 1.141609 -0.125901 -1.114818 3.476142 -0.561835 2.233066 4.315658 -0.149590 -6.321439 2.668461 -1.166959 1.801164 -0.000028 -0.000039 -0.000030 7.631980 -7.069834 -2.698661 57.719811 -1.047173 -4.838895 -1.063418 -36.521797 25.176329 -79.001554 -8.446158 -5.396302 -4.580699 -14.933759 -41.698097 20.886968 7.435284 -6.650692 2.223492 -13.624783 -0.573412 7.929456 -1.460419 -0.948581 -8.721760 -6.042149 -1.713332 -27.996973 3.646318 -1.408246 1.701341 -42.605324 12.276593 -22.898790 -9.886380 -3.775458 0.852736 -35.078152 -27.413843 26.535338 0.589136 1.163613 0.295879 -10.569359 8.894257 1.141977 0.423888 -3.836873 
